<?xml version="1.0" encoding="utf-8"?>
<!-- Generator: Adobe Illustrator 24.0.2, SVG Export Plug-In . SVG Version: 6.00 Build 0)  -->
<svg version="1.1" id="Layer_1" xmlns="http://www.w3.org/2000/svg" xmlns:xlink="http://www.w3.org/1999/xlink" x="0px" y="0px"
	 viewBox="0 0 114.2 34" style="enable-background:new 0 0 114.2 34;" xml:space="preserve">
<style type="text/css">
	.st0{fill-rule:evenodd;clip-rule:evenodd;fill:#F05A29;}
	.st1{fill-rule:evenodd;clip-rule:evenodd;fill:#F4E75A;}
	.st2{fill-rule:evenodd;clip-rule:evenodd;fill:#34B7AF;}
	.st3{fill-rule:evenodd;clip-rule:evenodd;fill:#9E1F63;}
	.st4{fill-rule:evenodd;clip-rule:evenodd;}
</style>
<path class="st0" d="M2.8,3.6h3.6V0H2.9"/>
<path class="st1" d="M41.4,34H45v-3.6h-3.6"/>
<path class="st2" d="M0.4,30.5H4v-3.6H0.4"/>
<path class="st3" d="M43.8,9.2H53V0h-9.2"/>
<path class="st4" d="M53.6,21.4c0,0.4,0,0.7,0.1,1c0.3,1.3,1.4,2.2,2.7,2.2c2.1,0,3.3-1.7,3.3-4.3c0-2.4-1.1-4.3-3.2-4.3
	c-1.3,0-2.5,1-2.8,2.3c0,0.2-0.1,0.5-0.1,0.8v2.1V21.4z M48.9,17.8c0-2-0.1-3.7-0.2-5.1h4l0.2,2.1H53c1.1-1.6,2.8-2.4,5-2.4
	c3.3,0,6.2,2.9,6.2,7.7c0,5.5-3.5,8.1-6.9,8.1c-1.8,0-3.3-0.7-3.9-1.7h-0.1V34h-4.6V17.8H48.9z M67.2,27.9h4.7V12.8h-4.7 M78.9,12.8
	l1.4,2.5c0.4,0.8,0.8,1.5,1.2,2.3h0.1c0.4-0.8,0.7-1.6,1.1-2.3l1.3-2.4h5L84,20l5,7.9h-5l-1.6-2.7c-0.4-0.7-0.8-1.5-1.2-2.3h-0.1
	c-0.4,0.8-0.8,1.5-1.1,2.3l-1.4,2.7h-5.1l5.1-7.7l-5-7.4L78.9,12.8L78.9,12.8z M99.1,18.6c0-1.1-0.5-3.1-2.7-3.1
	c-2,0-2.8,1.8-2.9,3.1H99.1L99.1,18.6z M93.5,21.8c0.1,2,2,2.9,4.2,2.9c1.6,0,2.9-0.2,4.2-0.6l0.6,3.2c-1.5,0.6-3.4,0.9-5.4,0.9
	c-5.2,0-8.1-3-8.1-7.7c0-3.8,2.4-8,7.6-8c4.9,0,6.7,3.8,6.7,7.5c0,0.8-0.1,1.5-0.2,1.9h-9.7L93.5,21.8z M107.1,27.9h4.6V6H107
	 M8.9,19.3v-4.5c0-1.2,0.1-2.4,0.2-3.8H8.9c-0.7,1.3-1.2,2.4-1.9,3.7l-2.7,4.4h4.6V19.3z M8.9,27.7v-4.8H0v-3.1L7.6,7.5h5.8v11.8
	h2.4v3.5h-2.4v4.8L8.9,27.7L8.9,27.7z M23.9,8.1v4.3h3.4v3.4h-3.4v5.5c0,1.8,0.4,2.6,1.9,2.6c0.6,0,1-0.1,1.4-0.1v3.5
	c-0.7,0.2-1.8,0.4-3.1,0.4c-1.5,0-2.8-0.6-3.6-1.3c-0.9-0.9-1.3-2.4-1.3-4.5v-6.2h-2v-3.4h2V9.2L23.9,8.1L23.9,8.1z M33.6,20.1
	c0,2.6,1.1,4.6,3.1,4.6c1.8,0,3-1.8,3-4.6c0-2.3-0.9-4.6-3-4.6C34.4,15.5,33.6,17.8,33.6,20.1 M44.6,19.9c0,5.6-3.9,8.1-8,8.1
	c-4.5,0-7.9-2.9-7.9-7.8s3.2-8,8.1-8c4.7,0,7.8,3.2,7.8,7.8"/>
</svg>
